<?xml version="1.0" encoding="utf-8"?>
<!-- Generator: Adobe Illustrator 24.1.2, SVG Export Plug-In . SVG Version: 6.00 Build 0)  -->
<svg version="1.1" id="レイヤー_1" xmlns="http://www.w3.org/2000/svg" xmlns:xlink="http://www.w3.org/1999/xlink" x="0px"
	 y="0px" viewBox="0 0 595.28 841.89" style="enable-background:new 0 0 595.28 841.89;" xml:space="preserve">
<style type="text/css">
	.st0{font-family:'OCRB';}
	.st1{font-size:78.1908px;}
	.st2{stroke:#000000;stroke-width:6;stroke-miterlimit:10;}
	.st3{fill:none;stroke:#000000;stroke-width:6;stroke-miterlimit:10;}
	.st4{stroke:#000000;stroke-width:4;stroke-miterlimit:10;}
	.st5{fill:none;stroke:#000000;stroke-width:4;stroke-miterlimit:10;}
	.st6{font-family:'KozGoPr6N-Regular-90ms-RKSJ-H';}
	.st7{font-size:27.4382px;}
</style>
<text transform="matrix(0.7208 0 0 1 234.0482 443.2944)" class="st0 st1">Shimiiy</text>
<line class="st2" x1="91.87" y1="452.77" x2="444.31" y2="452.77"/>
<line class="st2" x1="86.86" y1="354.16" x2="185.3" y2="354.16"/>
<path class="st3" d="M94.2,452.38c-4.63-6.18-22.04-30.94-17.98-64.17c2.07-16.96,8.94-29.59,13.7-36.78"/>
<path class="st3" d="M177.67,452.38c4.56-5.93,20.27-27.86,18.29-58.7c-1.32-20.47-9.82-35.29-14.48-42.26"/>
<line class="st4" x1="116.13" y1="380.38" x2="116.13" y2="406.21"/>
<line class="st4" x1="159.18" y1="379.99" x2="159.18" y2="405.81"/>
<path class="st5" d="M89,341.25c-9.8-8-27.53-24.92-34.96-51.65c-5.49-19.77-6.29-48.29,3.65-52.17
	c9.27-3.62,24.52,15.51,27.13,18.78c19.26,24.16,20.55,54.21,19.3,72.52"/>
<path class="st5" d="M185.23,341.25c9.1-8,25.55-24.92,32.44-51.65c5.09-19.77,5.83-48.29-3.39-52.17
	c-8.6-3.62-22.76,15.51-25.18,18.78c-17.87,24.16-19.07,54.21-17.92,72.52"/>
<path class="st5" d="M76.66,374.27c-15.3-1.68-26.21,11.29-26.61,21.64c-0.41,10.57,9.82,26.22,25.83,26.73"/>
<path class="st5" d="M192.64,374.27c16.52-1.68,28.3,11.29,28.74,21.64c0.44,10.57-10.61,26.22-27.89,26.73"/>
<text transform="matrix(1.1029 0 0 1 462.0488 452.7708)" class="st6 st7">シミー</text>
</svg>
