<?xml version="1.0" encoding="utf-8"?>
<!-- Generator: Adobe Illustrator 24.1.2, SVG Export Plug-In . SVG Version: 6.00 Build 0)  -->
<svg version="1.1" id="レイヤー_1" xmlns="http://www.w3.org/2000/svg" xmlns:xlink="http://www.w3.org/1999/xlink" x="0px"
	 y="0px" viewBox="0 0 595.3 841.9" style="enable-background:new 0 0 595.3 841.9;" xml:space="preserve">
<style type="text/css">
	.st0{fill:#FFFFFF;stroke:#FFFFFF;stroke-miterlimit:10;}
	.st1{font-family:'OCRB';}
	.st2{font-size:78.1908px;}
	.st3{fill:none;stroke:#FFFFFF;stroke-width:6;stroke-miterlimit:10;}
	.st4{fill:none;stroke:#FFFFFF;stroke-width:4;stroke-miterlimit:10;}
	.st5{font-family:'KozGoPr6N-Regular-90ms-RKSJ-H';}
	.st6{font-size:27.4382px;}
</style>
<text transform="matrix(0.7208 0 0 1 234.0483 443.2941)" class="st0 st1 st2">Shimiiy</text>
<line class="st3" x1="91.9" y1="452.8" x2="444.3" y2="452.8"/>
<line class="st3" x1="86.9" y1="354.2" x2="185.3" y2="354.2"/>
<path class="st3" d="M94.2,452.4c-4.6-6.2-22-30.9-18-64.2c2.1-17,8.9-29.6,13.7-36.8"/>
<path class="st3" d="M177.7,452.4c4.6-5.9,20.3-27.9,18.3-58.7c-1.3-20.5-9.8-35.3-14.5-42.3"/>
<line class="st4" x1="116.1" y1="380.4" x2="116.1" y2="406.2"/>
<line class="st4" x1="159.2" y1="380" x2="159.2" y2="405.8"/>
<path class="st4" d="M89,341.3c-9.8-8-27.5-24.9-35-51.6c-5.5-19.8-6.3-48.3,3.7-52.2c9.3-3.6,24.5,15.5,27.1,18.8
	c19.3,24.2,20.5,54.2,19.3,72.5"/>
<path class="st4" d="M185.2,341.3c9.1-8,25.6-24.9,32.4-51.6c5.1-19.8,5.8-48.3-3.4-52.2c-8.6-3.6-22.8,15.5-25.2,18.8
	c-17.9,24.2-19.1,54.2-17.9,72.5"/>
<path class="st4" d="M76.7,374.3c-15.3-1.7-26.2,11.3-26.6,21.6c-0.4,10.6,9.8,26.2,25.8,26.7"/>
<path class="st4" d="M192.6,374.3c16.5-1.7,28.3,11.3,28.7,21.6c0.4,10.6-10.6,26.2-27.9,26.7"/>
<text transform="matrix(1.1029 0 0 1 462.0488 452.7706)" class="st0 st5 st6">シミー</text>
</svg>
